<svg id="Capa_1" data-name="Capa 1" xmlns="http://www.w3.org/2000/svg" xmlns:xlink="http://www.w3.org/1999/xlink" viewBox="0 0 2960 2960"><defs><style>.cls-1{fill:#fff;}.cls-2{fill:url(#Degradado_sin_nombre);}.cls-3{fill:#006185;}.cls-4{fill:url(#Degradado_sin_nombre_2);}.cls-5{fill:#0099a5;}.cls-6{fill:#00b8c4;}.cls-7{fill:url(#Degradado_sin_nombre_3);}.cls-8{fill:url(#Degradado_sin_nombre_4);}.cls-9{opacity:0.63;font-size:77.42px;letter-spacing:0.41em;}.cls-12,.cls-13,.cls-14,.cls-15,.cls-9{isolation:isolate;font-family:Calibri-Bold, Calibri;font-weight:700;}.cls-10{letter-spacing:0.42em;}.cls-11{letter-spacing:0.41em;}.cls-12{font-size:74.79px;letter-spacing:0.43em;}.cls-13{font-size:1.14px;}.cls-14,.cls-15{font-size:76.25px;}.cls-14{letter-spacing:0.43em;}.cls-15{letter-spacing:0.43em;}.cls-16{stroke:#000;stroke-miterlimit:10;stroke-width:0.5px;}.cls-17{fill:url(#Degradado_sin_nombre_5);}.cls-18{fill:url(#Degradado_sin_nombre_6);}.cls-19{fill:url(#Degradado_sin_nombre_7);}.cls-20{fill:url(#Degradado_sin_nombre_8);}.cls-21{fill:url(#Degradado_sin_nombre_10);}.cls-22{fill:url(#Degradado_sin_nombre_11);}.cls-23{fill:url(#Degradado_sin_nombre_12);}.cls-24{fill:url(#Degradado_sin_nombre_13);}.cls-25{fill:url(#Degradado_sin_nombre_17);}</style><linearGradient id="Degradado_sin_nombre" x1="2429.82" y1="1604.07" x2="2800.54" y2="1604.07" gradientTransform="matrix(1, 0, 0, -1, 0, 2960)" gradientUnits="userSpaceOnUse"><stop offset="0.59" stop-color="#00a9bc"/><stop offset="1" stop-color="#00b3b1"/></linearGradient><linearGradient id="Degradado_sin_nombre_2" x1="2053.7" y1="1536.68" x2="2420.22" y2="1536.68" xlink:href="#Degradado_sin_nombre"/><linearGradient id="Degradado_sin_nombre_3" x1="159.31" y1="1475.18" x2="910.79" y2="1475.18" gradientTransform="matrix(1, 0, 0, -1, 0, 2960)" gradientUnits="userSpaceOnUse"><stop offset="0" stop-color="#0075a3"/><stop offset="1" stop-color="#00b3b1"/></linearGradient><linearGradient id="Degradado_sin_nombre_4" x1="853.9" y1="1281" x2="883.54" y2="1281" gradientTransform="matrix(1, 0, 0, -1, -2.8, 2960)" xlink:href="#Degradado_sin_nombre_3"/><linearGradient id="Degradado_sin_nombre_5" x1="780.5" y1="1360.6" x2="1370.35" y2="1360.6" gradientTransform="matrix(1, 0, 0, -1, 0, 2960)" gradientUnits="userSpaceOnUse"><stop offset="0" stop-color="#008c96"/><stop offset="1" stop-color="#006e78"/></linearGradient><linearGradient id="Degradado_sin_nombre_6" x1="780.53" y1="1360.45" x2="1370.38" y2="1360.45" xlink:href="#Degradado_sin_nombre_5"/><linearGradient id="Degradado_sin_nombre_7" x1="780.53" y1="1360.5" x2="1370.38" y2="1360.5" xlink:href="#Degradado_sin_nombre_5"/><linearGradient id="Degradado_sin_nombre_8" x1="780.53" y1="1360.55" x2="1370.38" y2="1360.55" xlink:href="#Degradado_sin_nombre_5"/><linearGradient id="Degradado_sin_nombre_10" x1="780.53" y1="1360.55" x2="1370.38" y2="1360.55" xlink:href="#Degradado_sin_nombre_5"/><linearGradient id="Degradado_sin_nombre_11" x1="1450.23" y1="1358.35" x2="1949.03" y2="1358.35" gradientTransform="matrix(1, 0, 0, -1, 0, 2960)" gradientUnits="userSpaceOnUse"><stop offset="0" stop-color="#006a6c"/><stop offset="1" stop-color="#00849f"/></linearGradient><linearGradient id="Degradado_sin_nombre_12" x1="1450.23" y1="1358.2" x2="1949.03" y2="1358.2" xlink:href="#Degradado_sin_nombre_11"/><linearGradient id="Degradado_sin_nombre_13" x1="1450.23" y1="1358.2" x2="1949.03" y2="1358.2" xlink:href="#Degradado_sin_nombre_11"/><linearGradient id="Degradado_sin_nombre_17" x1="1016.28" y1="1238.83" x2="1703.19" y2="1925.74" gradientTransform="matrix(1, 0, 0, -1, 0, 2960)" gradientUnits="userSpaceOnUse"><stop offset="0" stop-color="#006fa3"/><stop offset="1" stop-color="#00b3b1"/></linearGradient></defs><title>Saludent-Art</title><g id="Capa_5" data-name="Capa 5"><rect class="cls-1" width="2960" height="2960"/></g><g id="Letras_Dibujadas" data-name="Letras Dibujadas"><path id="rt" class="cls-2" d="M2464.5,1404c7-10.1,10.6-19.8,8-28.6-5.2-13.3-14.1-14.8-26.3-5.7-10,14-15.5,30.6-16,50.4-2.2,23.8,5.4,29.6,16,29.8l32-3.4,3.4,1.1v53.8c11.2,13.2,25.1,18.8,43.5,10.3l49.2-50.4,3.4,1.1,1.1,12.6c6.2,32,21.5,43.3,44.6,36.6,28.6-23,48.6-45.9,59.5-68.7,3.4-22.9-12.6-25.2-19.5-4.6-10.3,17.2-24.2,31.6-41.2,43.5-6,3.7-11.3,3.7-16-1.1-4.3-28.6-4.5-59.2,0-91.6a17.7,17.7,0,0,1,.1-2.3c6.3-43.4,16.7-77.8,34.2-108.7l2.3-3.4,146.5,1.1c12.6-2.3,17.2-24,0-27.5H2652l9.2-28.6c5.7-27.5-34.3-34.3-37.8-2.3l-6.9,30.9-80.1,2.3-13.7,4.6c-17.7,15.2-5.7,30.9,6.9,29.8,26.7-5.8,52.4-9,76.7-9.2l1.1,2.3-1.1,6.9-18.3,56.1c-5.6,25.1-8.8,53.9-10.3,85.8l-.3,2.4a12.75,12.75,0,0,1-5.4,8.7c-13.8,9.7-32.4,26.2-51.5,43.8-5.4,4.7-9.4,5.2-12.6,2.4a10,10,0,0,1-3.3-8l3.2-60.8c-1.1-14.9-14.9-14.9-20.6-3.4a63.42,63.42,0,0,1-21.7,16c-7.1,3.2-9.6,1.5-9.2-3.4C2458.5,1416.4,2461,1409.2,2464.5,1404Z" transform="translate(-2.8)"/><path id="S" class="cls-3" d="M546.9,1603.4c-4.7-6.4-7.2-11.9-.3-14a13,13,0,0,1,5.9-.3l7.3,1.1a3,3,0,0,1,1.3.5l3,1.6a11.5,11.5,0,0,0,1.7.6l3.9.6a14.08,14.08,0,0,0,4.1,0c8.7-1.3,15.6-6.6,19.8-18.3a4.35,4.35,0,0,0,.3-2.5c-1.3-13.2-7.2-22.1-17.6-27a20,20,0,0,0-10-1.7l-19.2,1.5a16.47,16.47,0,0,0-3.2.6c-24.8,8-36,24.9-34,50.6a15.25,15.25,0,0,0,.8,3.7c11,29.2,30.5,50.5,58.9,63.7.9.4,1.8.7,2.7,1,28.9,7,57.4,9.1,85.4,5.1a11,11,0,0,0,2.6-.6c37-12.5,60.2-36.6,73.8-68.6a22.5,22.5,0,0,0,.8-2.4c7.2-30.7,7.4-57.9-6-77.9-25.6-37.1-54.8-67.5-88.5-89.7l-.9-.6c-25.8-20-47.6-43.3-59.4-74.3a11.07,11.07,0,0,1-.7-2.6c-4.3-23.5-6.1-47.1,9.8-70.4.2-.3.5-.7.7-1,18.7-23.4,38.8-40.3,62.1-43.6,15.9-3.2,31.1-3.5,45.5-.6a13.81,13.81,0,0,1,5.4,2.4c7.9,5.7,14.1,12.1,17.6,19.9a14.67,14.67,0,0,1,1.2,5.5l.5,28.7a12.54,12.54,0,0,0,4.3,9.2c14.1,11.7,27.4,14.1,38.8-4.8a9,9,0,0,0,1.3-4.5v-36.6a13.68,13.68,0,0,0-1.3-5.9c-10.5-23.6-29.7-36.4-52.9-44.4a13.59,13.59,0,0,0-3.5-.7c-41.4-3.3-76.7,7.2-108.6,24.9a16.29,16.29,0,0,0-1.7,1.1c-36.7,27-55.6,57.8-53.8,93,2.1,39.3,14.5,76.3,50.4,108.2a5.72,5.72,0,0,0,.8.7c44.6,34,100,75.1,112.3,118.4a18.92,18.92,0,0,1,.5,2.3c3.6,30.4-8.2,55.6-31.4,77.1a15.66,15.66,0,0,1-4.4,2.8c-25.2,9.9-40.6,14.1-80.5,3.9a17.23,17.23,0,0,1-2.1-.7C572.3,1630.4,557.4,1619.4,546.9,1603.4Z" transform="translate(-2.8)"/><path class="cls-4" d="M2395.5,1388.3a16,16,0,0,0-4.4.3l-22.5,5.2-28.8,5.9a9.4,9.4,0,0,1-12-8.1c-8.7-81.8-10.2-109.6-1.8-165.4a25.17,25.17,0,0,0-9-23.5c-12.9-10.2-32.6-5.1-42,11a34.4,34.4,0,0,0-3.8,9.8l-7.1,31.2-70,160.3a7,7,0,0,1-7,4.4l-116.8-4.5c-12.8,13.6-12.2,26.3-.6,38,44.3,2.7,50.2,37,35.5,88.1l-7.6,11.6-41.6,60.9a12.84,12.84,0,0,0-2.2,8.9c2.4,19.4,12.3,27.9,28.7,26.7a11.69,11.69,0,0,0,6.6-2.7l6-5.1,108.4-197.2c37.5.1,71.1-6.6,100.2-15l4.8,3c2.2,19.9,5.2,41.8,13.1,63.7,10.3,48.6,37.4,110.8,34.8,126,4.2,39.4,39.5,31.4,48.5,4.3a16.88,16.88,0,0,0-1.5-13.7c-38.5-67.8-59.6-134.5-66.6-184.2-.3-1.9,1.6-3.5,3.6-3.4l58.8-1.2a20.84,20.84,0,0,0,18-11.1C2426.5,1395.7,2412.9,1389.6,2395.5,1388.3Zm-231.2,74.1a8.16,8.16,0,0,0-1.4,2.6,1.34,1.34,0,0,1-.7.8c-.9.6-1.3,2-1.8,2.9-.6,1.2-1.2,2.5-1.8,3.7-1.1,2.3-2.2,4.7-3.5,7a69.69,69.69,0,0,0-3.5,7.3,66.56,66.56,0,0,1-4.5,8.3c-.9,1.5-1.9,4.2-3.6,5.2a6.37,6.37,0,0,0-.2.7,5,5,0,0,1-1,1.9l-.6.6s-.1.2-.2.2a.35.35,0,0,1-.1.2,5.79,5.79,0,0,1-1.4,1.7h-.1c-1.3,2.3-3.2,4.3-5.7,4.3-2.9,0-3.9-7.4-3.7-10.5a53.56,53.56,0,0,1,.9-7v-.3a7,7,0,0,1-.1-2.5,5.85,5.85,0,0,1-.4-1.9,58.63,58.63,0,0,0-.7-11c-.5-2.3-1.8-3.4-3-5.5-.9-1.6-1-3.5-1.8-5.1-1.7-3.6-2.4-9.2,4.7-8.7a11.11,11.11,0,0,1,4.8-.1c3.1-.1,6.3-.2,9.4-.2a13.2,13.2,0,0,1,2.8.2h1.3a26.14,26.14,0,0,1,4-.2,12.8,12.8,0,0,1,3.9-.2C2161.3,1455,2170,1455.3,2164.3,1462.4Zm134.1-53.2a244.29,244.29,0,0,1-35.2,3.7c-3.9,0-7.7.2-11.5.4a22.78,22.78,0,0,1-5.2,1c-4,.2-8.1-.2-12.1.3-3.2.4-5.2.5-8.5.7-1.5.1-6.5-.2-7.2-1.1-2.5-.8-.7-4.5,1.4-6.6,2.3-2.3,3.6-6.7,5.6-9.5.4-1.2,1.5-2.5,2-3.7,1-2.4,2.2-3,3.3-5.4,1.4-3.2,2.5-6.4,3.7-9.6a26.81,26.81,0,0,1,.7-2.7c1.4-4.8,2-8.2,5.1-12.2l.5-1.5c0-.5.6-.7.6-1a34,34,0,0,1,2.7-6.6c2.3-5.4,4.2-10.4,7.7-15.3,2.7-3.8,5.2-8.1,8.1-12a97.5,97.5,0,0,1,4.5-9.8,61.85,61.85,0,0,1,3.9-6.5,28.43,28.43,0,0,1,3.3-5.6v-.3a13.84,13.84,0,0,1,1.8-3.9c1.6-2.5,2.8-5.3,4.6-7.6a9,9,0,0,1,.9-1,20.43,20.43,0,0,1,3.2-4.5c.2-.4.5-.7.5-.6.1-.3.3-.7.4-1a14.82,14.82,0,0,1,2.1-3.7c.5-1.2.9-2.4,1.4-3.6,2-4.7,8.8-3.2,8.3,1.7a4.58,4.58,0,0,1,.1,1.7c0,1,.1,2,.1,3a9.25,9.25,0,0,1-.2,2.9c0,.3-.1.5-.1.7.3,10.9,1,21.7,1.1,32.6.5,2.9.8,6.2-.1,8.5.3,4.1.3,8.1.6,12.4.4,4.9.9,9.9,1.4,14.8a40.22,40.22,0,0,1,2.1,10.1c.6,6.7,2.8,13.6,4.4,20.2C2306.2,1396.6,2309.9,1407.3,2298.4,1409.2Z" transform="translate(-2.8)"/><path class="cls-5" d="M1837.2,1407.5c-5.2,8.3-8,16.5-7.4,24.5a9.92,9.92,0,0,0,12,9,28.55,28.55,0,0,0,12.8-6.3l.3-.3c6.3-7.1,12.8-13.3,20.1-14.4,10.1-1.2,19.7-1.5,27.8,1.5a45.44,45.44,0,0,0,14.1,2.9c20.6,1.1,36.3,4.3,43.6,11.3a19.21,19.21,0,0,0,10.1,4.9c9.8,1.6,19,0,26.6-10.2.1-.2.3-.4.3-.6,3.4-8.9,7.3-16.9,17.3-16.2a10.14,10.14,0,0,0,10.3-6.1,7.59,7.59,0,0,0-1.9-9,12.89,12.89,0,0,0-9.3-3.5c-25.1.4-44.9-5-60.8-14.9a42.1,42.1,0,0,0-23.2-6.4c-51,1.1-66.4,6.6-88.7,28.9A21.41,21.41,0,0,0,1837.2,1407.5Z" transform="translate(-2.8)"/></g><g id="Diseños"><path class="cls-6" d="M1061.3,1176.2c47.5-104.3,55.3-183.8,25.6-232.8-9.4-15.1-26.1-22.2-50.3-21.3-.3,0-.6.1-.9.1-59.5,14.4-116.9,35.8-171.2,66.3-40.6,21.5-82.5,38.5-125.7,50.3-.2,0-.3.1-.5.1-40.1,6.9-75.2,8.1-102.6,1.1a.37.37,0,0,1-.3-.1,311.1,311.1,0,0,1-109.5-41.4,4.43,4.43,0,0,0-3-.6h0a4.4,4.4,0,0,0-3.4,5.9l1.4,3.8.3.6c18.5,33.4,50.4,59.6,95.9,74.1a343.21,343.21,0,0,0,140.6,24h.4a778.23,778.23,0,0,0,195.8-48.7c2.8-1.1,25.4-5.2,28.4-5.7,23-4.2-14.6-4.2,0,0,.7.2,31.1-5.3,40.8,3.7,16,14.9,24.6,36.3,28.9,60.6,0,.2.1.5.1.7l1.1,51.1v3.6a4.44,4.44,0,0,0,4.4,4.4h3.7Z" transform="translate(-2.8)"/><path class="cls-7" d="M775.8,1785.4h0a18.56,18.56,0,0,1-18.6-18.6v-31.3a17.75,17.75,0,0,0-1.6-7.5c-8.8-20.3-21.9-37.1-36.5-52.8a18.45,18.45,0,0,0-22-3.9c-43.1,22.2-88.7,19.1-133.5,6.9a18.64,18.64,0,0,0-22.9,13.4c-11,42.9-16.2,91.9-19.9,149.4-.9,13.8-16,22-27.9,14.9-12.1-7.2-22.2-19.4-29.8-33a4.13,4.13,0,0,0-.7-1.1c-103-154.8-169.4-333.5-185-565.5a11.3,11.3,0,0,1,0-2.6c4.5-67,13.8-98.6,88.8-91.3.7.1,47,6.3,56,9.7,64.7,24.9,106.7,34.8,146.4,40.1a75.92,75.92,0,0,0,39.7-5.3c57.4-24.6,106.9-29.8,152.2-.1a18.58,18.58,0,0,0,15.4,2.4c51.1-14.4,93.7-29.7,129.2-64.5,14.1-13.8-.2-37.2-18.9-31-112.4,37.6-203.7,49.1-320-11.1a10.89,10.89,0,0,0-2.5-1c-78.4-26.8-152.9-78.4-240.8-101.1a15.67,15.67,0,0,0-3-.5c-80.9-7.3-135.3,31.9-153.9,132.4-22.9,106.9,15.5,286,77.4,446.5,87.9,214.7,170.6,344,247.8,386a21.28,21.28,0,0,0,5,1.8c34.7,7.1,83,13.9,91-76,0-.4.1-.9.1-1.3,1.8-79.1,6.1-131.8,14.3-165.6,7.9-39.2,56.4-34.6,87.9,8.3a12.75,12.75,0,0,1,1.5,2.5c17.3,33.6,47.1,82.3,70.2,88.8a18.46,18.46,0,0,0,6.6.5,112.45,112.45,0,0,0,11.4-1.8C801.5,1817.8,798.3,1785.4,775.8,1785.4Z" transform="translate(-2.8)"/><polygon class="cls-8" points="874.4 1698.1 851.1 1698.1 876.3 1659.9 880.7 1662 874.4 1698.1"/></g><g id="Letras"><text class="cls-9" transform="translate(775.21 1762.5)">DR<tspan class="cls-10" x="156.34" y="0">A</tspan><tspan class="cls-11" x="235.79" y="0">.</tspan></text><text class="cls-12" transform="translate(1122.53 1762.5)">A</text><text class="cls-13" transform="translate(1202.33 1762.5)"> </text><text class="cls-12" transform="translate(1203.13 1762.5)">RIOR</text><text class="cls-13" transform="translate(1495.73 1762.5)"><tspan xml:space="preserve">    </tspan></text><text class="cls-12" transform="translate(1498.93 1762.5)">QUIS</text><text class="cls-14" transform="translate(1847.66 1762.5)">C</text><text class="cls-13" transform="translate(1923.66 1762.5)"><tspan xml:space="preserve">    </tspan></text><text class="cls-15" transform="translate(1926.76 1762.5)">A</text><text class="cls-13" transform="translate(2008.66 1762.5)"><tspan xml:space="preserve">    </tspan></text><text class="cls-15" transform="translate(2011.76 1762.5)">S</text><text class="cls-13" transform="translate(2083.46 1762.5)"><tspan xml:space="preserve">  </tspan></text><text class="cls-14" transform="translate(2085.06 1762.5)">TIL</text><text class="cls-13" transform="translate(2282.16 1762.5)"><tspan xml:space="preserve">    </tspan></text><text class="cls-15" transform="translate(2285.36 1762.5)">L</text><text class="cls-13" transform="translate(2353.26 1762.5)"><tspan xml:space="preserve">   </tspan></text><text class="cls-14" transform="translate(2355.56 1762.5)">O</text><path class="cls-16" d="M780.5,1549.9h37.2c29.3,0,49.1,19,49.1,48.5,0,29.3-19.3,50.5-49.5,50.5H780.5Zm13.8,87.9h21.8c24.5,0,36.2-16.7,36.2-39.1,0-19.6-10.6-37.7-36.1-37.7H794.3Z" transform="translate(-2.8)"/><path class="cls-16" d="M958.1,1602.7H906.3v35.1h56.9l-1.8,11.3H892.8V1550h67.8v11.3H906.3v30.3h51.8v11.1Z" transform="translate(-2.8)"/><path class="cls-16" d="M989.8,1649v-99.1h18.3c14.9,23.2,47.4,72.4,53.3,83.2h.2c-1-12.7-.9-28.3-.9-44.5v-38.7h13.1V1649h-17.3c-13.8-21.5-47.6-74.5-54.2-85.6h-.2c.7,11.3.8,28.1.8,46v39.7l-13.1-.1Z" transform="translate(-2.8)"/><path class="cls-16" d="M1126.6,1561.2H1093v-11.3h81.2v11.3h-33.7V1649h-13.9Z" transform="translate(-2.8)"/><path class="cls-16" d="M1208.3,1619.3l-11.2,29.7h-13.7l37.1-99.1h17l38.7,99.1h-14.7l-11.6-29.7Zm38-11.3c-9.9-26-15.4-39.9-17.6-47.4h-.1c-2.5,8.4-8.6,25.2-16.6,47.4Z" transform="translate(-2.8)"/><path class="cls-16" d="M1302.2,1549.9H1316v87.8h54.3l-1.9,11.3h-66.2v-99.1Z" transform="translate(-2.8)"/><path class="cls-17" d="M780.5,1549.9h37.2c29.3,0,49.1,19,49.1,48.5,0,29.3-19.3,50.5-49.5,50.5H780.5Zm13.8,87.9h21.8c24.5,0,36.2-16.7,36.2-39.1,0-19.6-10.6-37.7-36.1-37.7H794.3Z" transform="translate(-2.8)"/><path class="cls-18" d="M958.1,1602.7H906.3v35.1h56.9l-1.8,11.3H892.8V1550h67.8v11.3H906.3v30.3h51.8v11.1Z" transform="translate(-2.8)"/><path class="cls-19" d="M989.8,1649v-99.1h18.3c14.9,23.2,47.4,72.4,53.3,83.2h.2c-1-12.7-.9-28.3-.9-44.5v-38.7h13.1V1649h-17.3c-13.8-21.5-47.6-74.5-54.2-85.6h-.2c.7,11.3.8,28.1.8,46v39.7l-13.1-.1Z" transform="translate(-2.8)"/><path class="cls-20" d="M1126.6,1561.2H1093v-11.3h81.2v11.3h-33.7V1649h-13.9Z" transform="translate(-2.8)"/><path class="cls-20" d="M1208.3,1619.3l-11.2,29.7h-13.7l37.1-99.1h17l38.7,99.1h-14.7l-11.6-29.7Zm38-11.3c-9.9-26-15.4-39.9-17.6-47.4h-.1c-2.5,8.4-8.6,25.2-16.6,47.4Z" transform="translate(-2.8)"/><path class="cls-21" d="M1302.2,1549.9H1316v87.8h54.3l-1.9,11.3h-66.2v-99.1Z" transform="translate(-2.8)"/><path d="M1530.2,1622.2c-4.2,16-16.1,27.9-37.6,27.9-28.2,0-42.5-21.4-42.5-48.1,0-25.6,14.3-48.8,42.9-48.8,22.3,0,34.3,12.7,37.1,28.5h-12.5c-3.4-10.3-10.2-18-25.1-18-20.8,0-29.3,18.9-29.3,38,0,18.5,8.1,38,29.9,38,14.6,0,20.9-8.3,24.5-17.5Z" transform="translate(-2.8)"/><path d="M1563.3,1554.6h12.5v83.7H1625l-1.7,10.7h-60Z" transform="translate(-2.8)"/><path d="M1666.8,1554.6V1649h-12.5v-94.4Z" transform="translate(-2.8)"/><path d="M1706.4,1649v-94.4H1723c13.5,22.1,43,69,48.3,79.3h.2c-.9-12.1-.8-27-.8-42.4v-36.9h11.8V1649h-15.6c-12.5-20.5-43.2-71-49.1-81.6h-.2c.7,10.8.7,26.8.7,43.8V1649Z" transform="translate(-2.8)"/><path d="M1834.6,1554.6V1649h-12.5v-94.4Z" transform="translate(-2.8)"/><path d="M1949,1622.2c-4.2,16-16.1,27.9-37.6,27.9-28.2,0-42.5-21.4-42.5-48.1,0-25.6,14.3-48.8,42.9-48.8,22.3,0,34.3,12.7,37.1,28.5h-12.4c-3.4-10.3-10.2-18-25.1-18-20.8,0-29.3,18.9-29.3,38,0,18.5,8.1,38,29.9,38,14.6,0,20.9-8.3,24.5-17.5Z" transform="translate(-2.8)"/><path class="cls-22" d="M1530.2,1622.2c-4.2,16-16.1,27.9-37.6,27.9-28.2,0-42.5-21.4-42.5-48.1,0-25.6,14.3-48.8,42.9-48.8,22.3,0,34.3,12.7,37.1,28.5h-12.5c-3.4-10.3-10.2-18-25.1-18-20.8,0-29.3,18.9-29.3,38,0,18.5,8.1,38,29.9,38,14.6,0,20.9-8.3,24.5-17.5Z" transform="translate(-2.8)"/><path class="cls-23" d="M1563.3,1554.6h12.5v83.7H1625l-1.7,10.7h-60Z" transform="translate(-2.8)"/><path class="cls-24" d="M1666.8,1554.6V1649h-12.5v-94.4Z" transform="translate(-2.8)"/><path class="cls-24" d="M1706.4,1649v-94.4H1723c13.5,22.1,43,69,48.3,79.3h.2c-.9-12.1-.8-27-.8-42.4v-36.9h11.8V1649h-15.6c-12.5-20.5-43.2-71-49.1-81.6h-.2c.7,10.8.7,26.8.7,43.8V1649Z" transform="translate(-2.8)"/><path class="cls-24" d="M1834.6,1554.6V1649h-12.5v-94.4Z" transform="translate(-2.8)"/><path class="cls-22" d="M1949,1622.2c-4.2,16-16.1,27.9-37.6,27.9-28.2,0-42.5-21.4-42.5-48.1,0-25.6,14.3-48.8,42.9-48.8,22.3,0,34.3,12.7,37.1,28.5h-12.4c-3.4-10.3-10.2-18-25.1-18-20.8,0-29.3,18.9-29.3,38,0,18.5,8.1,38,29.9,38,14.6,0,20.9-8.3,24.5-17.5Z" transform="translate(-2.8)"/><path class="cls-25" d="M1905.5,1252h0l-121.7-1.2c-8.1,1.7-3.8-15,2.3-32.3,3.5-10-3.2-20.9-13.8-21.8-.5,0-.9-.1-1.4-.1a19.78,19.78,0,0,0-19.2,14.6,111.8,111.8,0,0,0-4.1,30.7,10.63,10.63,0,0,1-11,10.6h-74.9c-9,.1-14.5,5.2-16.6,11.4-4.1,12.5,7.8,24.4,20.6,21.1,23.9-6.3,46.4-9.7,65.8-6.7,3.7.8,4,4.4,1.3,10.5-9.2,21-15.6,46.3-20.5,74a326.29,326.29,0,0,0-6.1,57.3,23.82,23.82,0,0,1-9.4,18.9c-17.9,13.9-34,25.8-45.5,34.4-4.5,3.3-9,2-6.6-11.4,1.7-9.8,1.3-12.2,5.6-22a33.38,33.38,0,0,0,2.1-6.8c2.1-11.4,2.8-16.4,3.3-25.1,1.3-25.9-26.1-36.7-44.2-23.5-.5.3-.9.7-1.4,1-14.1,11.6-28.7,30.2-40.9,47l-31.5,43.1v.1c-2.4,4.8-6,3.9-4.9-1.8,4.1-21.7,15.9-55.1,29-84.7a22.83,22.83,0,0,0-4-24.9c-8.6-9.1-19.5-4.7-29.6,30v.1c-6,11.3-8.8,29.1-12.2,48a11.29,11.29,0,0,1-3.1,5.9c-15.8,15.9-39.7,28.8-55.3,39.6h-.1c-30.5,12-34.3,14.1-47.4-1.7a14.92,14.92,0,0,1-3.1-6.9c-2.5-18.6,1.4-35.9,12.8-49.5a16.28,16.28,0,0,0,2.3-3.5c6.9-13.3,16.2-24.2,29.2-31.7h.1c13.7-4.4,22.7-3.9,20.6,8.5v.1a29.59,29.59,0,0,1-7.2,12.9,22.73,22.73,0,0,1-20,7.3c-11.8-1.6-16.8-.5-17.5,5.2v.1c1.1,11.8,4.4,14.7,9.5,16.8a33.44,33.44,0,0,0,22.7,1c12.2-3.9,23-12.1,34.7-24.6a18.21,18.21,0,0,0,4.6-9.3c3.7-21.4-1.1-35.9-20.2-38.4-29-4.9-55.1,9.5-83.9,48.1a14.76,14.76,0,0,0-1.6,2.7c-13.4,28.4-30.2,49.5-51.8,60-7,3.8-11.8,3.4-12.6-4.2-1.8-35.8.4-64,11.1-75.9l.1-.1c13.6-29.3,23.4-57.7,28.2-85.2v-.1c9.7-30.2,16.7-59.4,20.3-87.2,1.9-19.7-.8-34-13.4-37h-.2c-21,1.2-30.8,22.4-43.4,90.4-5.9,28.8-10.9,71.5-15.5,114.7a2.39,2.39,0,0,1-4.5.9c-11.5-20-30.7-20-45.6-18.4a31,31,0,0,0-4.2.8c-22.5,7-33.3,24.4-42.9,49.8a.1.1,0,0,1-.1.1c-19.4,23.9-30.4,34.6-45.7,38.2-14.4,2.7-17.5-4-18.5-15.8-1.4-18.4,1.1-35.7,7.7-50.6h0c4.8-12.8,5.1-23.5-6.2-28.8h-.2c-9.6-1.4-16.3,5.5-20.7,19.4v.1c-18.6,38.6-41.1,70.1-69.8,90.6h-.1c-8.6,4.7-14.8,4.6-15.9-5.6v-.1c-.2-22.9,3.4-44.5,14.5-63.5,10.5-17.2,15.7-32.5,1.4-40.9h-.1c-13.7-6.6-23.2-3.7-27.8,10.3v.1l-12,60.1c0,.1,0,.1-.1.2a114.3,114.3,0,0,1-31.8,35.1c-6.8,6-12.3,4.7-16.6-2.9,0-.1-.1-.1-.1-.2-2.9-36.3-5-71.7,7.3-89.1l.1-.1c15.2-10.5,25.4-29.1,33.3-51.4,10-26.2,17.6-50.8,20.6-72.8,3.3-21.8,4.6-41.8-.7-55.1-4.7-11.5-14.7-13.1-31.4-2.7a.1.1,0,0,0-.1.1c-16.3,21.2-27.6,44.8-32,71.5h0c-9.4,31.8-15.7,67.1-19.2,105.7a290.78,290.78,0,0,0-2.5,45.2c.1,9.2-7.1,16-13.6,22.5-12.8,12.8-24.2,24.5-39.8,31.9h-.1c-8.2,2.1-14.1,1.4-13.7-6.6v-.1c4.9-16.5,8-30.8,7.6-40.7a10,10,0,0,0-13-9c-9.9,3.3-22.1,15.3-34.8,32.1h0c-14.4,14.8-26.5,21.9-35,17.7-16.3-6.2-15-19-5.9-38,5.3-10.6,10.6-21.4,19.4-26.4a25.23,25.23,0,0,0,4.9-3.7c7-6.8,15.5-9.7,26.9-4.2h0c6.6,3.9,11.4,7.8,13.6,14.6a4.89,4.89,0,0,0,3.9,3.3c12.7,2.2,17.5-1.2,17.6-13.6a18.35,18.35,0,0,0-4.8-12.4c-8.8-9.4-21.9-13.3-36.4-15.6a20.92,20.92,0,0,0-10.8,1.1c-30.2,11.5-50.1,43-56.9,61.2a8.3,8.3,0,0,0-.6,2.1c-2.9,13.5-3.6,23.7-1.2,32.3,3.3,11.7,13.9,19.8,26.1,20.7,12,1,21.7-1.5,32.6-7.6a30.45,30.45,0,0,0,5.5-4.7l.1-.1,8.8-4.4.1-.1a2.81,2.81,0,0,1,3.1-.8,3.21,3.21,0,0,1,2.3,3l.2,3.2a27.37,27.37,0,0,0,30,25.8h0a15,15,0,0,0,4.2-.9c10.1-3.6,26.2-17.1,52.2-46.9a2.44,2.44,0,0,1,2.9-.6l.6.3a4.34,4.34,0,0,1,2.4,3.3,53.78,53.78,0,0,0,7.2,22.4c9.7,16.2,31.2,20.8,46.4,9.6a54.34,54.34,0,0,0,16-19.2,2.51,2.51,0,0,1,4.6.2l.1.2v.1c2,17.4,11.9,27.6,26.2,32.4a3,3,0,0,0,1,.2c19.8,2.3,37.4-9.2,55-31.2.1-.1.1-.1.1-.2l14-18.6c2-2.8,5.1-6.5,8.1-2a11.67,11.67,0,0,1,1.4,3.5c3,15.4,8.2,22.5,19.2,27.8a24,24,0,0,0,2.3,1.1c19.2,4.7,38.4-8.9,60.1-30.4,3.5-3.4,2.7-.2,2.6,1.2-2.2,24.5,3.1,44.5,23,51.9h.1c20.3,5.8,29.6-2.5,53-30.8a5.54,5.54,0,0,0,1-2.2l5-13a2.26,2.26,0,0,1,4.4.4c1.9,10.9,5.3,19.7,10.5,26.1a24.2,24.2,0,0,0,25.8,7.6c14.1-4.3,26.2-13.4,37-25.7a1.14,1.14,0,0,1,2,.8c-.8,16.8,5.3,28.2,20.3,32.6,29.6,8.2,66.3-3.5,113.4-44.4.3-.3.8,0,.8.4a149.81,149.81,0,0,0,.2,46.8c2.2,14.8,10.1,18.5,29.3.3a20.82,20.82,0,0,0,3.2-4c22-37.7,45.9-71.2,76-104.1,6.3-6.9,19.3-10.7,15.8,8-2.2,12.1-8.2,19.9-10.7,35.2-.7,4.4-2.7,9.2-3.6,13.6-5,24.1-.6,38.4,21.9,33.6h.1c21.9-11.6,41.6-25.9,58.3-44.1a3.68,3.68,0,0,1,6.4,2.3c1.2,28.1,2.5,44.9,23.9,52.9a6.87,6.87,0,0,0,2.4.5c18,1,38.9-15.4,69.4-59.5a25.35,25.35,0,0,0,2-3.6c12.4-28.7-7-29.3-18.1-3.8a1.42,1.42,0,0,0-.2.6c-8.7,14.3-19.9,27.4-37.1,37.5h0c-8.7,4.3-15.5,1.5-19.6-7.3v-.2c.4-46.2-1.6-90.4,10-122.2a9.83,9.83,0,0,0,.5-1.6c8.2-28.5,14.6-53.1,23.5-73.3a4.61,4.61,0,0,1,4.3-2.8l142.1,1.6C1935.1,1278.9,1937.5,1249.1,1905.5,1252Zm-557.3,35.2c.6-2.3,1.5-4.1,2.3-6.3a69.91,69.91,0,0,0,1.9-7.9c1.1-4.6,1.6-10.4,2.6-15,1-4.4,1.8-8.8,3-13.1,1.3-4.5,1.4-7.6,2.4-12.1,1.9-8.6,13.9-11.9,13.2,3.7-.2,4.3,0,7.6-1,11.8q-1.8,7-3.3,14.1c-1.1,4.8-2.6,9.5-3.8,14.3-.7,2.6-1,5.3-1.9,7.9-.8,2.2-1.7,4.1-2.3,6.3C1347,1345.6,1334.5,1339.8,1348.2,1287.2Zm-362.3,39.9c1.7-9.4,3.3-14.9,4.8-20.8,1.7-6.5,3-12.7,4.8-19.2,3.6-12.8,8.4-24.4,12.8-36.9,2.4-6.9,14.9-22.1,11,3-2.2,14.5-6.8,25.5-10.4,38.2-1.8,6.4-4,12.3-5.5,18.8a100.8,100.8,0,0,1-6.5,19.9C973.7,1380.9,984.6,1334.3,985.9,1327.1Zm304.3,117.1h0c-.3,2.2-5.4,12.4-6.1,14.4-2.9,7.2-3.4,8-8,14.2-3.2,4.2-5.4,9.2-9.6,12.4a38.73,38.73,0,0,0-5.2,4.7c-6.5,7-16,11.9-23.4,4a23.69,23.69,0,0,1-6.5-16.6c-.6-1.9-.2-8.1-.1-10.1a65.68,65.68,0,0,1,1.5-12.5c1.6-6.9,1.6-7.7,2.8-11.4,2.7-8.3,3.8-8.8,5.2-14.7,2.8-11.2,4.6-11.2,18.4-22.6a5.39,5.39,0,0,1,1.3-.7,19.79,19.79,0,0,0,2.6-1.1,27.48,27.48,0,0,1,4.7-1.5,9,9,0,0,1,2.8-.4,18.38,18.38,0,0,1,9.4,4c7.1,5.8,12.3,11.3,13.9,17.7C1295.5,1431.8,1292.2,1437.9,1290.2,1444.2Z" transform="translate(-2.8)"/><path class="cls-16" d="M1149.9,1495.8" transform="translate(-2.8)"/></g></svg>